<svg xmlns="http://www.w3.org/2000/svg" xmlns:xlink="http://www.w3.org/1999/xlink" id="Layer_1" x="0px" y="0px" width="400px" height="400px" viewBox="0 0 400 400" style="enable-background:new 0 0 400 400;" xml:space="preserve"> <style type="text/css"> .st0{fill:#E95420;} </style> <g> <path class="st0" d="M200,0C89.5,0,0,89.5,0,200s89.5,200,200,200s200-89.5,200-200C400,89.5,310.5,0,200,0z M200,95.6 c24.2,0,43.8,19.6,43.8,43.7c0,24.2-19.6,43.8-43.8,43.8c-24.2,0-43.8-19.6-43.8-43.8C156.2,115.2,175.8,95.6,200,95.6z M287.5,304.4h-175c-6.9,0-12.5-5.6-12.5-12.5c0-55.1,44.9-100,100-100s100,44.9,100,100C300,298.8,294.4,304.4,287.5,304.4 L287.5,304.4z"/> </g> </svg>