<svg xmlns="http://www.w3.org/2000/svg" xmlns:xlink="http://www.w3.org/1999/xlink" id="Layer_1" x="0px" y="0px" width="400px" height="400px" viewBox="0 0 400 400" style="enable-background:new 0 0 400 400;" xml:space="preserve"> <style type="text/css"> .st0{fill:#E95420;} </style> <g> <path class="st0" d="M200,0C89.7,0,0,89.7,0,200s89.7,200,200,200s200-89.7,200-200C400,89.7,310.3,0,200,0z M293.7,256.1H106.3 c-31.1,0-56.2-25.2-56.2-56.2c0-29.9,23.3-54.3,52.8-56.1C89.6,117.4,99.1,84.9,125,70c25.9-14.9,58.7-7,75,17.6 C216.3,63,249.1,55,275,70c25.9,14.9,35.4,47.4,22.2,73.8c29.5,1.8,52.8,26.2,52.8,56.1C350,230.9,324.8,256.1,293.7,256.1 L293.7,256.1z"/> </g> </svg>