<svg xmlns="http://www.w3.org/2000/svg" xmlns:xlink="http://www.w3.org/1999/xlink" id="Layer_1" x="0px" y="0px" width="400px" height="400px" viewBox="0 0 400 400" style="enable-background:new 0 0 400 400;" xml:space="preserve"> <style type="text/css"> .st0{fill:#E95420;} </style> <g> <g> <path class="st0" d="M156.3,316.1c-2.7,0-5.6-0.2-8.7-0.5c-3.1-0.4-6-0.8-8.9-1.5c-2.9-0.6-5.4-1.3-7.8-2s-4.2-1.4-5.5-2l4.4-18.9 c2.6,1.1,6,2.3,10.1,3.6c4.1,1.3,9.2,1.9,15.3,1.9c7,0,12.2-1.3,15.4-4c3.3-2.6,4.9-6.2,4.9-10.7c0-2.7-0.6-5.1-1.8-6.9 c-1.2-1.9-2.8-3.4-4.8-4.6c-2-1.2-4.5-2-7.3-2.4c-2.8-0.5-5.8-0.7-8.9-0.7h-8.9v-18.3h10.1c2.2,0,4.4-0.2,6.5-0.6 c2.1-0.4,3.9-1.1,5.6-2.1c1.6-1,2.9-2.3,3.9-4c1-1.7,1.4-3.8,1.4-6.3c0-1.9-0.4-3.6-1.2-5c-0.8-1.4-1.9-2.6-3.1-3.5 c-1.3-0.9-2.8-1.6-4.4-2.1c-1.7-0.5-3.4-0.7-5.1-0.7c-4.4,0-8.4,0.7-12.1,2c-3.7,1.3-7.1,3-10.1,4.9l-8.1-16.6 c1.6-1,3.5-2.1,5.7-3.2c2.2-1.1,4.6-2.1,7.3-3c2.6-0.9,5.5-1.7,8.5-2.3c3-0.6,6.2-0.9,9.5-0.9c6.2,0,11.6,0.7,16.1,2.2 c4.5,1.5,8.3,3.6,11.2,6.2c2.9,2.7,5.1,5.8,6.6,9.4c1.4,3.6,2.1,7.5,2.1,11.8c0,4.2-1.2,8.2-3.5,12.1c-2.3,3.9-5.5,6.9-9.5,8.9 c5.5,2.2,9.7,5.6,12.7,10c3,4.4,4.5,9.8,4.5,16c0,4.9-0.8,9.4-2.4,13.5c-1.6,4.1-4.2,7.7-7.6,10.7c-3.5,3-7.9,5.4-13.2,7 C170,315.3,163.7,316.1,156.3,316.1L156.3,316.1z M211.3,230c3-1.2,6-2.6,9.2-4.2c3.2-1.6,6.3-3.3,9.4-5.2c3.1-1.9,6-3.9,8.8-6 c2.8-2.1,5.3-4.3,7.6-6.6h15.9v105.8h-22.7v-76.2c-3,2-6.5,3.9-10.2,5.6c-3.8,1.7-7.4,3.1-11,4.4L211.3,230L211.3,230z M200,0 C89.5,0,0,89.5,0,200c0,62.1,28.3,117.6,72.7,154.3V101.6H119v23.1h-11.7v23.1h46.3v-23.2h-11.4v-23.1h46.3v23.1h-11.7v23.1h46.3 v-23.2h-11.5v-23.1h46.3v23.1h-11.7v23.1h46.3v-23.2h-11.5v-23.1h46.2v252.7C371.7,317.6,400,262.1,400,200 C400,89.5,310.5,0,200,0z"/> </g> </g> </svg>